HIERARCHY
ROOT ui
{
	 OFFSET 0 0 0
	 CHANNELS 3 XPosition YPosition Z Position
	 EndSite
	 {
	 OFFSET 0 -1 0
	 }
}
ROOT li
{
	 OFFSET 0 0 0
	 CHANNELS 3 XPosition YPosition Z Position
	 EndSite
	 {
	 OFFSET 0 -1 0
	 }
}
ROOT ul
{
	 OFFSET 0 0 0
	 CHANNELS 3 XPosition YPosition Z Position
	 EndSite
	 {
	 OFFSET 0 -1 0
	 }
}
ROOT ll
{
	 OFFSET 0 0 0
	 CHANNELS 3 XPosition YPosition Z Position
	 EndSite
	 {
	 OFFSET 0 -1 0
	 }
}
ROOT tt
{
	 OFFSET 0 0 0
	 CHANNELS 3 XPosition YPosition Z Position
	 EndSite
	 {
	 OFFSET 0 -1 0
	 }
}
ROOT tb
{
	 OFFSET 0 0 0
	 CHANNELS 3 XPosition YPosition Z Position
	 EndSite
	 {
	 OFFSET 0 -1 0
	 }
}
ROOT td
{
	 OFFSET 0 0 0
	 CHANNELS 3 XPosition YPosition Z Position
	 EndSite
	 {
	 OFFSET 0 -1 0
	 }
}
ROOT v
{
	 OFFSET 0 0 0
	 CHANNELS 3 XPosition YPosition Z Position
	 EndSite
	 {
	 OFFSET 0 -1 0
	 }
}
ROOT bn
{
	 OFFSET 0 0 0
	 CHANNELS 3 XPosition YPosition Z Position
	 EndSite
	 {
	 OFFSET 0 -1 0
	 }
}
MOTION
Frames: 24
Frame Time: 0.002
0.003397176027297974	-0.003053142070770264	0		0.41398895263671875	-2.320761474609375	0		-0.915262451171875	0.3800571594238281	0		-0.46406137084960936	-2.663037109375	0		1.591189453125	-0.3740595397949219	0		3.173476318359375	-0.23499761962890625	0		4.59145654296875	-0.24349351501464844	0		5.9811220703125	0.5636556396484375	0		-0.45293463134765627	5.86219580078125	0		
-0.001311221957206726	0.0018393030166625975	0		0.410040771484375	-2.325904052734375	0		-0.9200257568359375	0.3760097961425781	0		-0.47308489990234376	-2.674078125	0		1.59219921875	-0.3983226318359375	0		3.18688525390625	-0.2154720458984375	0		4.57966162109375	-0.24683746337890625	0		5.97638671875	0.5835835571289063	0		-0.46838482666015624	5.85321630859375	0		
-1.4736799895763398E-4	-0.006315637111663819	0		0.408096435546875	-2.3290595703125	0		-0.9247208251953125	0.38096841430664063	0		-0.474213134765625	-2.69518359375	0		1.5893726806640625	-0.40254672241210937	0		3.173115966796875	-0.21470277404785157	0		4.5818984375	-0.24530287170410156	0		5.9814765625	0.5617807006835938	0		-0.43372137451171877	5.85779638671875	0		
0.0040977330207824705	-0.0034924750328063966	0		0.3730655517578125	-2.3399111328125	0		-0.9884837646484375	0.3804645690917969	0		-0.4363518981933594	-2.715634765625	0		1.60045654296875	-0.4148896484375	0		3.155276123046875	-0.21988798522949218	0		4.577029296875	-0.2536969299316406	0		5.988892578125	0.59357275390625	0		-0.4331208190917969	5.85768408203125	0		
0.011357548713684083	0.003309773921966553	0		0.42808416748046874	-2.3435673828125	0		-0.9781905517578126	0.3883026428222656	0		-0.4644354248046875	-2.727486328125	0		1.5715283203125	-0.42586154174804686	0		3.183376220703125	-0.22947590637207033	0		4.5772099609375	-0.25412158203125	0		5.98903857421875	0.592679931640625	0		-0.43542449951171874	5.8716044921875	0		
0.007490038871765137	-7.791420221328736E-4	0		0.424064453125	-2.348681640625	0		-0.920028076171875	0.3847077941894531	0		-0.3766467590332031	-2.751385498046875	0		1.60749609375	-0.44541024780273436	0		3.16278759765625	-0.201604248046875	0		4.59648095703125	-0.2416995849609375	0		5.9891650390625	0.5918294067382812	0		-0.4159352722167969	5.86733251953125	0		
-3.5893398523330686E-4	0.0011795439720153809	0		0.41799774169921877	-2.355764892578125	0		-0.9919532470703125	0.37630841064453124	0		-0.4587701721191406	-2.76172412109375	0		1.5713101806640626	-0.47728475952148436	0		3.148651611328125	-0.2297705078125	0		4.57746240234375	-0.25690283203125	0		5.9892646484375	0.5910335083007813	0		-0.4656014404296875	5.8527021484375	0		
-0.07230516815185548	-0.0022567439079284666	0		0.4128953857421875	-2.362842529296875	0		-0.9238023071289062	0.38063046264648437	0		-0.40401687622070315	-2.782309326171875	0		1.6041583251953124	-0.5007745056152344	0		3.148726806640625	-0.23004022216796874	0		4.569564453125	-0.25417481994628904	0		5.98933203125	0.5903026733398438	0		-0.31204226684570313	5.8692099609375	0		
0.004720344066619873	-0.0040565900802612305	0		0.4306693115234375	-2.3791171875	0		-0.9917891235351562	0.37621954345703124	0		-0.43526123046875	-2.7980888671875	0		1.551923583984375	-0.5274560546875	0		3.164641845703125	-0.24242935180664063	0		4.56959033203125	-0.25448486328125	0		5.98936376953125	0.5896445922851562	0		-0.46587002563476565	5.8535693359375	0		
-2.422589957714081E-4	9.180499911308289E-4	0		0.4285275573730469	-2.382188720703125	0		-0.9827075805664063	0.38410711669921876	0		-0.4125345153808594	-2.81335546875	0		1.5658157958984376	-0.5357261962890625	0		3.14980908203125	-0.22250082397460938	0		4.5795693359375	-0.25485060119628905	0		5.98936181640625	0.5890634765625	0		-0.41647494506835936	5.8690595703125	0		
0.002734755039215088	0.0038370509147644043	0		0.42434518432617185	-2.386220703125	0		-0.91973681640625	0.38450247192382814	0		-0.4029876403808594	-2.844484375	0		1.553603515625	-0.5507275390625	0		3.164561279296875	-0.24281764221191407	0		4.58457373046875	-0.2481312713623047	0		5.98219677734375	0.5887236328125	0		-0.4503397216796875	5.86434228515625	0		
0.004573287010192871	-0.004212796211242676	0		0.4191092529296875	-2.3932197265625	0		-0.9238469848632812	0.3805413818359375	0		-0.351392822265625	-2.86798974609375	0		1.573998291015625	-0.6040088500976563	0		3.1735224609375	-0.2370453643798828	0		4.572451171875	-0.2512109832763672	0		5.99346923828125	0.567283935546875	0		-0.4502193603515625	5.8643271484375	0		
-4.949629902839661E-4	8.267269730567932E-4	0		0.42176800537109377	-2.409267578125	0		-0.92395068359375	0.38056283569335936	0		-0.38577554321289065	-2.886664306640625	0		1.579552001953125	-0.637120361328125	0		3.158249267578125	-0.25300912475585935	0		4.56927099609375	-0.2573320617675781	0		5.979125	0.5672736206054687	0		-0.4180877075195312	5.87103125	0		
0.004317872047424317	-0.004201089859008789	0		0.42743978881835937	-2.42231591796875	0		-0.9980767211914062	0.38130783081054687	0		-0.38721102905273436	-2.9096240234375	0		1.575224853515625	-0.6551051635742188	0		3.154055419921875	-0.2580372314453125	0		4.5791240234375	-0.25753115844726565	0		5.983232421875	0.5478984985351563	0		-0.45112371826171876	5.86537451171875	0		
0.011224741935729981	0.002780949115753174	0		0.4252060546875	-2.4242578125	0		-0.988237060546875	0.3802847900390625	0		-0.37167510986328123	-2.934716796875	0		1.5898316650390625	-0.6782338256835938	0		3.1696904296875	-0.27921176147460935	0		4.5769404296875	-0.25956842041015626	0		5.98674853515625	0.5632313842773438	0		-0.4350728454589844	5.87328173828125	0		
0.0060971488952636715	0.00790967607498169	0		0.44791748046875	-2.431402587890625	0		-0.924398681640625	0.3807762451171875	0		-0.36300115966796875	-2.94471337890625	0		1.6193948974609376	-0.7044661865234375	0		3.171747314453125	-0.2542098388671875	0		4.5887783203125	-0.2576869812011719	0		5.98662451171875	0.5631771850585937	0		-0.43612841796875	5.874380859375	0		
-0.0011591869592666626	0.0010934849977493285	0		0.4116083984375	-2.439948974609375	0		-0.9355828247070312	0.3810111999511719	0		-0.3674905090332031	-2.971552001953125	0		1.61880419921875	-0.7453706665039063	0		3.15424951171875	-0.28597509765625	0		4.59365087890625	-0.2506839141845703	0		5.986490234375	0.5632301025390625	0		-0.4182635498046875	5.87133251953125	0		
-0.0013635870218276977	0.0012473349571228028	0		0.46793914794921876	-2.48634033203125	0		-0.9357835693359375	0.38117410278320313	0		-0.242101318359375	-3.01159423828125	0		1.62526806640625	-0.7792977294921875	0		3.1680322265625	-0.28698526000976565	0		4.581416015625	-0.2534600524902344	0		5.9827177734375	0.5479086303710937	0		-0.41841104125976564	5.87149072265625	0		
-0.0015823060274124145	0.0014390120506286622	0		0.44660440063476564	-2.4969501953125	0		-0.99899755859375	0.38197128295898436	0		-0.24254449462890626	-3.033400390625	0		1.630720947265625	-0.8131696166992187	0		3.169697509765625	-0.29882748413085936	0		4.5901767578125	-0.25537632751464845	0		5.9911005859375	0.5428020629882813	0		-0.40448751831054686	5.88355029296875	0		
0.0012133309841156005	0.004640184879302979	0		0.4782176208496094	-2.51302490234375	0		-0.9311953735351562	0.3855522766113281	0		-0.23108296203613282	-3.065283447265625	0		1.6392015380859375	-0.8430240478515625	0		3.169550537109375	-0.2895977478027344	0		4.5980673828125	-0.2422230224609375	0		5.9987666015625	0.5395591430664063	0		-0.42368170166015623	5.88796142578125	0		
-0.002061724901199341	0.0019369900226593017	0		0.4479751892089844	-2.51346826171875	0		-0.9314437866210937	0.3858157958984375	0		-0.24445695495605468	-3.079891845703125	0		1.6435965576171876	-0.8807939453125	0		3.157115234375	-0.3091988525390625	0		4.5928984375	-0.23388514709472658	0		5.98432568359375	0.54040380859375	0		-0.43904220581054687	5.87937060546875	0		
-0.0023214590549468996	0.002242331027984619	0		0.5004895324707032	-2.539662353515625	0		-0.9367451171875	0.3821600341796875	0		-0.24793464660644532	-3.10555908203125	0		1.6351170654296876	-0.9043955078125	0		3.1939140625	-0.3032159118652344	0		4.59652685546875	-0.24557328796386718	0		5.98707421875	0.5617249755859375	0		-0.405312255859375	5.88434765625	0		
-0.0025934550762176513	0.0025834529399871827	0		0.4781307373046875	-2.552104248046875	0		-0.9370224609375	0.38248797607421875	0		-0.24939102172851563	-3.1292109375	0		1.6415341796875	-0.9380963745117188	0		3.15443896484375	-0.32445779418945314	0		4.59033447265625	-0.237110595703125	0		5.99820947265625	0.5414395751953125	0		-0.4056672058105469	5.88468310546875	0		
-0.0028762800693511964	0.0029582359790802	0		0.48377099609375	-2.564777099609375	0		-0.937312255859375	0.38284564208984373	0		-0.26073944091796875	-3.141735595703125	0		1.6569071044921875	-0.9758416137695313	0		3.160171142578125	-0.32308221435546874	0		4.59411279296875	-0.23068997192382812	0		5.98374169921875	0.542607421875	0		-0.4401036376953125	5.88037353515625	0		
